# xmcd
#
# Track frame offsets: 
#        150
#        12117
#        25027
#        37775
#        49550
#        61529
#        74322
#        84953
#        97245
#        110738
#        124320
#        136831
#        148014
#        161012
#        174308
#        188189
#        199759
#        213036
#        225506
#        236373
#        247175
#        259665
#        271340
#        282718
#
# Disc length: 3921 seconds
#
# Revision: 2
# Processed by: cddbd v1.5.2PL0 Copyright (c) Steve Scherf et al.
# Submitted via: ExactAudioCopyFreeDBPlugin 1.0
#
DISCID=4b0f4f18
DTITLE=Charles Brown - Charles Brown:  The Classic Earliest Recordings
DTITLE=, 1944-1950 [JSP Records]
DYEAR=2003
DGENRE=Rhythm and Blues
TTITLE0=Huggin' Bug
TTITLE1=Gloria
TTITLE2=I Wouldn't Mind
TTITLE3=Now That You're Gone
TTITLE4=St. Louis Blues
TTITLE5=Bobby Sox Blues
TTITLE6=Juke Box Lil
TTITLE7=Why is Love Like That
TTITLE8=It's Over
TTITLE9=Changeable Woman Blues
TTITLE10=I Surrender Dear
TTITLE11=Better Watch What You Do
TTITLE12=I Love to Make Love to You
TTITLE13=New Orleans Blues
TTITLE14=I Cried for You
TTITLE15=Moonrise
TTITLE16=I'm Looking for Love
TTITLE17=Merry Christmas Baby
TTITLE18=Peek-A-Boo
TTITLE19=Don't Get Salty Sugar
TTITLE20=Lonesome Blues
TTITLE21=Soothe Me
TTITLE22=I'll Miss You So
TTITLE23=Money's Getting Cheaper
EXTD=
EXTT0=
EXTT1=
EXTT2=
EXTT3=
EXTT4=
EXTT5=
EXTT6=
EXTT7=
EXTT8=
EXTT9=
EXTT10=
EXTT11=
EXTT12=
EXTT13=
EXTT14=
EXTT15=
EXTT16=
EXTT17=
EXTT18=
EXTT19=
EXTT20=
EXTT21=
EXTT22=
EXTT23=
PLAYORDER=
